<svg xmlns="http://www.w3.org/2000/svg" viewBox="0 0 317.11 316.73"><defs><style>.a{fill:none;stroke:#7c6946;stroke-miterlimit:10;stroke-width:3px;}.b{fill:#7c6946;}</style></defs><title>main_1</title><line class="a" x1="315.88" y1="203.23" x2="223.57" y2="295.54"/><line class="a" x1="315.95" y1="190.53" x2="223.57" y2="282.91"/><line class="a" x1="316.03" y1="177.83" x2="223.57" y2="270.29"/><line class="a" x1="316.11" y1="165.13" x2="223.57" y2="257.66"/><line class="a" x1="316.18" y1="152.42" x2="223.57" y2="245.04"/><line class="a" x1="316.26" y1="139.72" x2="223.57" y2="232.41"/><line class="a" x1="316.34" y1="127.02" x2="223.57" y2="219.79"/><line class="a" x1="316.42" y1="114.32" x2="223.57" y2="207.16"/><line class="a" x1="316.49" y1="101.62" x2="223.57" y2="194.54"/><line class="a" x1="316.57" y1="88.91" x2="223.57" y2="181.91"/><line class="a" x1="316.65" y1="76.21" x2="223.57" y2="169.29"/><line class="a" x1="316.72" y1="63.51" x2="223.57" y2="156.66"/><line class="a" x1="316.8" y1="50.81" x2="223.57" y2="144.04"/><line class="a" x1="316.88" y1="38.11" x2="223.57" y2="131.41"/><line class="a" x1="316.95" y1="25.4" x2="223.57" y2="118.79"/><line class="a" x1="317.03" y1="12.7" x2="223.57" y2="106.16"/><line class="a" x1="317.11" x2="223.57" y2="93.54"/><line class="a" x1="304.48" x2="210.94" y2="93.54"/><line class="a" x1="291.86" x2="198.32" y2="93.54"/><line class="a" x1="279.23" x2="185.69" y2="93.54"/><line class="a" x1="266.61" x2="173.07" y2="93.54"/><line class="a" x1="253.98" x2="160.44" y2="93.54"/><line class="a" x1="241.36" x2="147.82" y2="93.54"/><line class="a" x1="228.73" x2="135.19" y2="93.54"/><line class="a" x1="216.11" x2="122.57" y2="93.54"/><line class="a" x1="203.48" x2="109.94" y2="93.54"/><line class="a" x1="190.86" x2="97.32" y2="93.54"/><line class="a" x1="178.23" x2="84.69" y2="93.54"/><line class="a" x1="165.61" x2="72.07" y2="93.54"/><line class="a" x1="152.98" x2="59.44" y2="93.54"/><line class="a" x1="140.36" x2="46.82" y2="93.54"/><line class="a" x1="127.73" x2="34.19" y2="93.54"/><line class="a" x1="115.11" x2="21.57" y2="93.54"/><path class="b" d="M20.77,160.37h1.72a0.74,0.74,0,0,1,.49.16,1.06,1.06,0,0,1,.3.41l10.25,25q0.17,0.47.34,1t0.3,1.08q0.13-.55.29-1.08t0.35-1l10.23-25a0.92,0.92,0,0,1,.3-0.4,0.79,0.79,0,0,1,.51-0.17h1.7l-12.42,30.1H33.19Z"/><path class="b" d="M59,190.47H56.81v-30.1H59v30.1Z"/><path class="b" d="M95,190.47H93.36a0.74,0.74,0,0,1-.49-0.16,1.06,1.06,0,0,1-.3-0.41L89,181.15H74.25l-3.53,8.74a0.91,0.91,0,0,1-.3.4,0.79,0.79,0,0,1-.51.17H68.25l12.32-30.1h2.15ZM74.89,179.53H88.38l-6.13-15.21a15.1,15.1,0,0,1-.62-1.79q-0.15.51-.3,1t-0.3.83Z"/><path class="b" d="M50,227.66a17.83,17.83,0,0,1-1,6.28A13.55,13.55,0,0,1,46,238.68a12.69,12.69,0,0,1-4.54,3,15.8,15.8,0,0,1-5.84,1h-11v-30.1h11a15.81,15.81,0,0,1,5.84,1,12.7,12.7,0,0,1,4.54,3A13.56,13.56,0,0,1,49,221.4,17.76,17.76,0,0,1,50,227.66Zm-2.25,0a16.81,16.81,0,0,0-.87-5.62,11.73,11.73,0,0,0-2.47-4.17,10.55,10.55,0,0,0-3.83-2.6,13.18,13.18,0,0,0-4.94-.89H26.85V241h8.81a13.18,13.18,0,0,0,4.94-.89,10.54,10.54,0,0,0,3.83-2.6,11.71,11.71,0,0,0,2.47-4.17A16.88,16.88,0,0,0,47.77,227.66Z"/><path class="b" d="M63.45,229.1v13.62H61.25v-30.1H69q5.19,0,7.78,2a7,7,0,0,1,2.58,5.9,8,8,0,0,1-.61,3.15,7.52,7.52,0,0,1-1.72,2.5,9.1,9.1,0,0,1-2.7,1.77,12.06,12.06,0,0,1-3.54.9,3.46,3.46,0,0,1,.92.85l10.36,13H80.15a1.39,1.39,0,0,1-.61-0.12,1.19,1.19,0,0,1-.46-0.44L69.42,230a2.89,2.89,0,0,0-.35-0.4,1.4,1.4,0,0,0-.4-0.27,2.11,2.11,0,0,0-.53-0.14,5.65,5.65,0,0,0-.75,0H63.45Zm0-1.62h5.21a12.39,12.39,0,0,0,3.58-.48,7.72,7.72,0,0,0,2.68-1.37,5.93,5.93,0,0,0,1.67-2.15,6.73,6.73,0,0,0,.57-2.83,5.54,5.54,0,0,0-2.1-4.77A10.18,10.18,0,0,0,69,214.34H63.45v13.15Z"/><path class="b" d="M109.38,212.62v1.81H93.53v12.17h13.19v1.77H93.53v12.55h15.89l0,1.81h-18v-30.1h18Z"/><path class="b" d="M134.88,216.28a0.6,0.6,0,0,1-.55.36,1.22,1.22,0,0,1-.71-0.39,9.14,9.14,0,0,0-3-1.75,9.34,9.34,0,0,0-5.64.06,6,6,0,0,0-2.08,1.28,5.42,5.42,0,0,0-1.28,1.87,5.83,5.83,0,0,0-.44,2.23,4.56,4.56,0,0,0,.65,2.53,5.83,5.83,0,0,0,1.71,1.7,11.09,11.09,0,0,0,2.42,1.18q1.35,0.48,2.78.95t2.78,1a10,10,0,0,1,2.42,1.41,6.51,6.51,0,0,1,1.71,2.1,6.64,6.64,0,0,1,.65,3.1,9.75,9.75,0,0,1-.65,3.56,8.33,8.33,0,0,1-1.88,2.9,8.85,8.85,0,0,1-3,1.95,11,11,0,0,1-4.08.71,11.54,11.54,0,0,1-5.13-1.05,12.06,12.06,0,0,1-3.77-2.88l0.6-.94a0.75,0.75,0,0,1,.6-0.32,0.86,0.86,0,0,1,.49.26l0.72,0.63q0.43,0.37,1,.81a8.46,8.46,0,0,0,1.38.81,9.81,9.81,0,0,0,1.81.63,9.6,9.6,0,0,0,2.32.26,8.81,8.81,0,0,0,3.19-.54,7,7,0,0,0,2.37-1.48,6.27,6.27,0,0,0,1.48-2.22,7.39,7.39,0,0,0,.51-2.75,4.86,4.86,0,0,0-.65-2.63,5.59,5.59,0,0,0-1.71-1.72,11.07,11.07,0,0,0-2.42-1.16q-1.35-.47-2.78-0.91t-2.78-1a9.57,9.57,0,0,1-2.41-1.41,6.48,6.48,0,0,1-1.71-2.15,7.12,7.12,0,0,1-.65-3.22,7.63,7.63,0,0,1,.57-2.91,7.25,7.25,0,0,1,1.68-2.48,8.25,8.25,0,0,1,2.73-1.72,10,10,0,0,1,3.71-.65,11.23,11.23,0,0,1,4.2.74,10.07,10.07,0,0,1,3.39,2.28Z"/><path class="b" d="M161.9,216.28a0.6,0.6,0,0,1-.55.36,1.22,1.22,0,0,1-.71-0.39,9.14,9.14,0,0,0-3-1.75,9.34,9.34,0,0,0-5.64.06,6,6,0,0,0-2.08,1.28,5.42,5.42,0,0,0-1.28,1.87,5.83,5.83,0,0,0-.44,2.23,4.56,4.56,0,0,0,.65,2.53,5.83,5.83,0,0,0,1.71,1.7,11.09,11.09,0,0,0,2.42,1.18q1.35,0.48,2.78.95t2.78,1a10,10,0,0,1,2.42,1.41,6.51,6.51,0,0,1,1.71,2.1,6.64,6.64,0,0,1,.65,3.1,9.75,9.75,0,0,1-.65,3.56,8.33,8.33,0,0,1-1.88,2.9,8.85,8.85,0,0,1-3,1.95,11,11,0,0,1-4.08.71A11.54,11.54,0,0,1,148.5,242a12.06,12.06,0,0,1-3.77-2.88l0.6-.94a0.75,0.75,0,0,1,.6-0.32,0.86,0.86,0,0,1,.49.26l0.72,0.63q0.43,0.37,1,.81a8.46,8.46,0,0,0,1.38.81,9.81,9.81,0,0,0,1.81.63,9.6,9.6,0,0,0,2.32.26,8.81,8.81,0,0,0,3.19-.54,7,7,0,0,0,2.37-1.48,6.27,6.27,0,0,0,1.48-2.22,7.39,7.39,0,0,0,.51-2.75,4.86,4.86,0,0,0-.65-2.63,5.59,5.59,0,0,0-1.71-1.72,11.07,11.07,0,0,0-2.42-1.16q-1.35-.47-2.78-0.91t-2.78-1a9.57,9.57,0,0,1-2.41-1.41,6.48,6.48,0,0,1-1.71-2.15,7.12,7.12,0,0,1-.65-3.22,7.63,7.63,0,0,1,.57-2.91,7.25,7.25,0,0,1,1.68-2.48,8.25,8.25,0,0,1,2.73-1.72,10,10,0,0,1,3.71-.65,11.23,11.23,0,0,1,4.2.74,10.07,10.07,0,0,1,3.39,2.28Z"/><path class="b" d="M46.38,289.91a0.49,0.49,0,0,1,.36.15L47.6,291a14.4,14.4,0,0,1-2,1.8,12.4,12.4,0,0,1-2.4,1.36,14.15,14.15,0,0,1-2.87.87,17.8,17.8,0,0,1-3.44.31,14.63,14.63,0,0,1-5.73-1.1,12.82,12.82,0,0,1-4.48-3.11,14.06,14.06,0,0,1-2.9-4.86,18.53,18.53,0,0,1-1-6.34,17.65,17.65,0,0,1,1.06-6.25,14.37,14.37,0,0,1,3-4.86,13.21,13.21,0,0,1,4.59-3.15,15.23,15.23,0,0,1,5.91-1.12,14.58,14.58,0,0,1,5.47,1,14.76,14.76,0,0,1,4.34,2.7l-0.66,1a0.59,0.59,0,0,1-.53.26,1.72,1.72,0,0,1-.83-0.47,11,11,0,0,0-1.59-1,13.57,13.57,0,0,0-2.54-1,12.51,12.51,0,0,0-3.65-.47,12.94,12.94,0,0,0-5,.94A11,11,0,0,0,28.38,270a12.34,12.34,0,0,0-2.54,4.25,17.92,17.92,0,0,0,0,11.34,12.45,12.45,0,0,0,2.54,4.24,11,11,0,0,0,3.82,2.66,12.15,12.15,0,0,0,4.75.93,17.49,17.49,0,0,0,2.88-.21,11.28,11.28,0,0,0,2.33-.64,10.48,10.48,0,0,0,2-1A15,15,0,0,0,46,290.1a1.19,1.19,0,0,1,.21-0.14A0.47,0.47,0,0,1,46.38,289.91Z"/><path class="b" d="M83.93,279.91a18.27,18.27,0,0,1-1,6.33A14,14,0,0,1,80,291.09a13,13,0,0,1-4.54,3.11,16.08,16.08,0,0,1-11.67,0,13,13,0,0,1-4.53-3.11,14,14,0,0,1-2.94-4.85,19.68,19.68,0,0,1,0-12.64,14,14,0,0,1,2.94-4.85,13.11,13.11,0,0,1,4.53-3.12,14.93,14.93,0,0,1,5.83-1.11,15.13,15.13,0,0,1,5.84,1.1A12.89,12.89,0,0,1,80,268.74a14.14,14.14,0,0,1,2.94,4.86A18.21,18.21,0,0,1,83.93,279.91Zm-2.25,0a17.19,17.19,0,0,0-.87-5.66A12.11,12.11,0,0,0,78.34,270a10.66,10.66,0,0,0-3.83-2.67,13.57,13.57,0,0,0-9.85,0A10.75,10.75,0,0,0,60.82,270a12.13,12.13,0,0,0-2.49,4.25,18.61,18.61,0,0,0,0,11.33,12.14,12.14,0,0,0,2.49,4.24,10.62,10.62,0,0,0,3.84,2.66,13.71,13.71,0,0,0,9.85,0,10.53,10.53,0,0,0,3.83-2.66,12.11,12.11,0,0,0,2.47-4.24A17.16,17.16,0,0,0,81.68,279.91Z"/><path class="b" d="M120.48,279.91a17.83,17.83,0,0,1-1,6.28,13.55,13.55,0,0,1-2.94,4.74,12.69,12.69,0,0,1-4.54,3,15.8,15.8,0,0,1-5.84,1h-11v-30.1h11a15.81,15.81,0,0,1,5.84,1,12.7,12.7,0,0,1,4.54,3,13.56,13.56,0,0,1,2.94,4.74A17.76,17.76,0,0,1,120.48,279.91Zm-2.25,0a16.81,16.81,0,0,0-.87-5.62,11.73,11.73,0,0,0-2.47-4.17,10.55,10.55,0,0,0-3.83-2.6,13.18,13.18,0,0,0-4.94-.89H97.31v26.57h8.81a13.18,13.18,0,0,0,4.94-.89,10.54,10.54,0,0,0,3.83-2.6,11.71,11.71,0,0,0,2.47-4.17A16.88,16.88,0,0,0,118.23,279.91Z"/><path class="b" d="M149.75,264.87v1.81H133.9v12.17h13.19v1.77H133.9v12.55H149.8l0,1.81h-18v-30.1h18Z"/><polyline class="a" points="22.05 140.43 22.05 94.02 223.09 94.02 223.09 295.06 173.04 295.06"/></svg>